<svg width="173" height="75" viewBox="0 0 173 75" fill="none" xmlns="http://www.w3.org/2000/svg">
<path d="M11.9688 39.9688L29.0625 45.7188V55.3125L1.4375 44.0625V35.75L29.0625 24.5V34.0625L11.9688 39.9688ZM61.9062 50.5H46.875L44.25 59H32.5312L49.2188 13.5H59.5312L76.3438 59H64.5625L61.9062 50.5ZM49.5 42.0312H59.2812L54.375 26.25L49.5 42.0312ZM79.6875 59V13.5H94.3438C98.3646 13.5 101.979 14.4167 105.188 16.25C108.396 18.0625 110.896 20.6354 112.688 23.9688C114.5 27.2812 115.417 31 115.438 35.125V37.2188C115.438 41.3854 114.552 45.125 112.781 48.4375C111.031 51.7292 108.552 54.3125 105.344 56.1875C102.156 58.0417 98.5938 58.9792 94.6562 59H79.6875ZM90.6562 21.9688V50.5625H94.4688C97.6146 50.5625 100.031 49.4479 101.719 47.2188C103.406 44.9688 104.25 41.6354 104.25 37.2188V35.25C104.25 30.8542 103.406 27.5417 101.719 25.3125C100.031 23.0833 97.5729 21.9688 94.3438 21.9688H90.6562ZM124.188 62.9062H116.719L132.25 13.5H139.75L124.188 62.9062ZM160.594 39.875L143.594 34.0938V24.5312L171.062 35.7812V44.0938L143.594 55.3438V45.7812L160.594 39.875Z" fill="#FEFEFE"/>
</svg>
